<svg version="1.1" id="Layer_1" xmlns="http://www.w3.org/2000/svg" xmlns:xlink="http://www.w3.org/1999/xlink" x="0px" y="0px"
	 width="100%" viewBox="0 0 1600 1600" enable-background="new 0 0 1600 1600" xml:space="preserve">
<path fill="#000000" opacity="1.000000" stroke="none" 
	d="
M892.000000,1601.000000 
	C594.666687,1601.000000 297.833344,1601.000000 1.000000,1601.000000 
	C1.000000,1067.666626 1.000000,534.333313 1.000000,1.000000 
	C534.333313,1.000000 1067.666626,1.000000 1601.000000,1.000000 
	C1601.000000,534.333313 1601.000000,1067.666626 1601.000000,1601.000000 
	C1364.833374,1601.000000 1128.666626,1601.000000 892.000000,1601.000000 
M561.873718,1456.980957 
	C593.475403,1456.980957 625.077087,1456.980957 657.151001,1456.980957 
	C657.151001,1451.382202 657.151001,1446.309448 657.151001,1440.782471 
	C678.688782,1440.782471 699.755005,1440.782471 721.285889,1440.782471 
	C721.285889,1435.238892 721.285889,1430.167969 721.285889,1424.822754 
	C726.707947,1424.822754 731.658020,1424.822754 737.069031,1424.822754 
	C737.069031,1419.467163 737.069031,1414.391235 737.069031,1408.863403 
	C747.939148,1408.863403 758.343201,1408.863403 769.205139,1408.863403 
	C769.205139,1403.323120 769.205139,1398.253540 769.205139,1392.726685 
	C774.748169,1392.726685 779.820312,1392.726685 785.164917,1392.726685 
	C785.164917,1387.304810 785.164917,1382.354736 785.164917,1376.943604 
	C790.520691,1376.943604 795.598511,1376.943604 801.125122,1376.943604 
	C801.125122,1371.408081 801.125122,1366.332520 801.125122,1360.807495 
	C811.996887,1360.807495 822.401245,1360.807495 833.261719,1360.807495 
	C833.261719,1355.265015 833.261719,1350.189941 833.261719,1344.848633 
	C854.680969,1344.848633 875.626282,1344.848633 897.042725,1344.848633 
	C897.042725,1339.493896 897.042725,1334.416626 897.042725,1329.290771 
	C945.245972,1329.290771 992.973328,1329.290771 1041.175293,1329.290771 
	C1041.175293,1334.645020 1041.175293,1339.715698 1041.175293,1345.242432 
	C1052.048706,1345.242432 1062.452759,1345.242432 1073.134888,1345.242432 
	C1073.134888,1350.664062 1073.134888,1355.613892 1073.134888,1361.025635 
	C1089.159790,1361.025635 1104.893188,1361.025635 1121.093994,1361.025635 
	C1121.093994,1366.560059 1121.093994,1371.636475 1121.093994,1376.684326 
	C1179.963745,1376.684326 1238.357300,1376.684326 1297.224854,1376.684326 
	C1297.224854,1371.302856 1297.224854,1366.233154 1297.224854,1360.706909 
	C1302.769043,1360.706909 1307.839111,1360.706909 1313.184570,1360.706909 
	C1313.184570,1355.284424 1313.184570,1350.336792 1313.184570,1344.923828 
	C1318.541504,1344.923828 1323.619263,1344.923828 1329.144775,1344.923828 
	C1329.144775,1339.387573 1329.144775,1334.312622 1329.144775,1328.787964 
	C1340.017212,1328.787964 1350.421509,1328.787964 1361.281006,1328.787964 
	C1361.281006,1323.244019 1361.281006,1318.172485 1361.281006,1312.827393 
	C1366.702881,1312.827393 1371.651123,1312.827393 1377.063477,1312.827393 
	C1377.063477,1296.801758 1377.063477,1281.068359 1377.063477,1264.868164 
	C1382.599121,1264.868164 1387.674683,1264.868164 1393.198975,1264.868164 
	C1393.198975,1248.663330 1393.198975,1232.929199 1393.198975,1216.731934 
	C1398.741455,1216.731934 1403.813110,1216.731934 1409.157715,1216.731934 
	C1409.157715,1189.979492 1409.157715,1163.701538 1409.157715,1136.951294 
	C1414.512451,1136.951294 1419.589722,1136.951294 1424.704102,1136.951294 
	C1424.704102,1126.077393 1424.704102,1115.681396 1424.704102,1104.814331 
	C1419.344116,1104.814331 1414.274170,1104.814331 1408.751221,1104.814331 
	C1408.751221,1024.612549 1408.751221,944.885254 1408.751221,864.862671 
	C1403.333496,864.862671 1398.383667,864.862671 1393.251709,864.862671 
	C1393.251709,854.168457 1393.251709,843.773071 1393.251709,832.903320 
	C1398.561890,832.903320 1403.638184,832.903320 1409.164185,832.903320 
	C1409.164185,822.032288 1409.164185,811.628052 1409.164185,800.766724 
	C1414.704712,800.766724 1419.774414,800.766724 1425.300659,800.766724 
	C1425.300659,784.561218 1425.300659,768.828674 1425.300659,752.809570 
	C1430.723511,752.809570 1435.670654,752.809570 1441.082764,752.809570 
	C1441.082764,742.116394 1441.082764,731.712524 1441.082764,720.848511 
	C1446.619751,720.848511 1451.693726,720.848511 1457.218750,720.848511 
	C1457.218750,709.975891 1457.218750,699.571716 1457.218750,688.711914 
	C1462.762573,688.711914 1467.832886,688.711914 1473.178467,688.711914 
	C1473.178467,677.957642 1473.178467,667.677795 1473.178467,656.929688 
	C1478.534424,656.929688 1483.610352,656.929688 1489.137939,656.929688 
	C1489.137939,646.059448 1489.137939,635.655334 1489.137939,624.793091 
	C1494.677979,624.793091 1499.747314,624.793091 1505.273315,624.793091 
	C1505.273315,603.254395 1505.273315,582.188171 1505.273315,560.834839 
	C1510.695068,560.834839 1515.643799,560.834839 1520.735962,560.834839 
	C1520.735962,518.142456 1520.735962,475.748535 1520.735962,432.875488 
	C1510.013184,432.875488 1499.550049,432.875488 1489.006104,431.956909 
	C1489.006104,421.694733 1489.006104,411.432526 1489.006104,400.782288 
	C1483.315430,400.782288 1478.236816,400.782288 1472.774292,400.782288 
	C1472.774292,395.306671 1472.774292,390.228546 1472.774292,384.766052 
	C1467.298340,384.766052 1462.220337,384.766052 1456.757324,384.766052 
	C1456.757324,379.289734 1456.757324,374.212555 1456.757324,368.750061 
	C1445.948364,368.750061 1435.536255,368.750061 1424.740723,368.750061 
	C1424.740723,363.271698 1424.740723,358.194153 1424.740723,352.732605 
	C1419.262817,352.732605 1414.184814,352.732605 1408.723755,352.732605 
	C1408.723755,347.254425 1408.723755,342.176331 1408.723755,336.716766 
	C1392.581909,336.716766 1376.838867,336.716766 1360.706665,336.716766 
	C1360.706665,331.237061 1360.706665,326.158081 1360.706665,320.699951 
	C1349.896729,320.699951 1339.485229,320.699951 1328.689697,320.699951 
	C1328.689697,315.220062 1328.689697,310.140930 1328.689697,304.683228 
	C1301.882202,304.683228 1275.474243,304.683228 1248.673096,304.683228 
	C1248.673096,299.201141 1248.673096,294.117767 1248.673096,288.665588 
	C1211.200806,288.665588 1174.128418,288.665588 1136.835693,288.665588 
	C1136.835693,277.975739 1136.835693,267.686981 1136.835693,257.002625 
	C1120.873779,257.002625 1105.130737,257.002625 1088.994141,257.002625 
	C1088.994141,251.535858 1088.994141,246.451782 1088.994141,240.985687 
	C1078.191406,240.985687 1067.779053,240.985687 1056.977051,240.985687 
	C1056.977051,235.518082 1056.977051,230.434067 1056.977051,224.968811 
	C1046.173950,224.968811 1035.761719,224.968811 1024.960205,224.968811 
	C1024.960205,219.500763 1024.960205,214.417114 1024.960205,208.951950 
	C1019.491699,208.951950 1014.407471,208.951950 1008.943665,208.951950 
	C1008.943665,203.483566 1008.943665,198.399170 1008.943665,192.935333 
	C1003.474365,192.935333 998.390076,192.935333 992.926880,192.935333 
	C992.926880,187.465973 992.926880,182.381790 992.926880,176.918915 
	C976.788696,176.918915 961.045471,176.918915 944.910034,176.918915 
	C944.910034,171.448746 944.910034,166.364334 944.910034,160.902191 
	C934.105286,160.902191 923.693787,160.902191 912.893188,160.902191 
	C912.893188,155.431183 912.893188,150.347031 912.893188,144.885422 
	C902.087891,144.885422 891.676514,144.885422 880.876343,144.885422 
	C880.876343,139.413605 880.876343,134.330307 880.876343,128.868622 
	C870.070496,128.868622 859.658875,128.868622 848.859375,128.868622 
	C848.859375,123.395485 848.859375,118.311707 848.859375,112.851776 
	C838.053223,112.851776 827.641296,112.851776 816.842407,112.851776 
	C816.842407,107.378464 816.842407,102.296638 816.842407,96.834923 
	C806.035889,96.834923 795.624268,96.834923 784.825439,96.834923 
	C784.825439,91.360649 784.825439,86.278046 784.825439,81.290878 
	C726.019287,81.290878 667.613953,81.290878 608.809509,81.290878 
	C608.809509,86.655807 608.809509,91.737167 608.809509,97.197723 
	C592.669373,97.197723 576.926208,97.197723 560.792664,97.197723 
	C560.792664,102.673027 560.792664,107.752075 560.792664,113.214462 
	C544.652222,113.214462 528.909058,113.214462 512.775818,113.214462 
	C512.775818,118.690277 512.775818,123.768280 512.775818,129.231262 
	C501.967529,129.231262 491.555603,129.231262 480.759369,129.231262 
	C480.759369,134.708359 480.759369,139.786240 480.759369,145.249176 
	C475.282959,145.249176 470.205902,145.249176 464.743683,145.249176 
	C464.743683,161.390564 464.743683,177.133743 464.743683,193.266235 
	C459.265442,193.266235 454.187958,193.266235 448.726898,193.266235 
	C448.726898,204.075546 448.726898,214.487610 448.726898,225.283188 
	C443.247498,225.283188 438.168915,225.283188 432.710022,225.283188 
	C432.710022,236.092880 432.710022,246.504791 432.710022,257.299561 
	C427.229736,257.299561 422.150208,257.299561 416.692474,257.299561 
	C416.692474,262.778748 416.692474,267.858276 416.692474,273.315796 
	C411.212799,273.315796 406.133209,273.315796 400.675934,273.315796 
	C400.675934,278.795959 400.675934,283.876282 400.675934,289.333008 
	C395.195557,289.333008 390.114532,289.333008 384.836670,289.333008 
	C384.836670,305.355072 384.836670,320.976837 384.836670,336.995544 
	C379.546692,336.995544 374.462616,336.995544 368.996002,336.995544 
	C368.996002,347.798004 368.996002,358.210236 368.996002,369.012329 
	C363.528778,369.012329 358.444489,369.012329 352.979279,369.012329 
	C352.979279,374.479584 352.979279,379.563995 352.979279,385.029175 
	C347.512543,385.029175 342.429108,385.029175 336.962677,385.029175 
	C336.962677,395.832367 336.962677,406.244354 336.962677,417.046021 
	C331.493958,417.046021 326.409973,417.046021 320.945801,417.046021 
	C320.945801,427.849976 320.945801,438.261597 320.945801,449.062744 
	C315.476532,449.062744 310.392151,449.062744 304.928955,449.062744 
	C304.928955,454.531830 304.928955,459.616455 304.928955,465.079315 
	C299.459076,465.079315 294.374573,465.079315 288.912415,465.079315 
	C288.912415,470.549561 288.912415,475.634033 288.912415,481.095856 
	C283.441772,481.095856 278.357452,481.095856 272.895569,481.095856 
	C272.895569,486.566650 272.895569,491.650330 272.895569,497.112549 
	C262.090546,497.112549 251.679153,497.112549 240.879135,497.112549 
	C240.879135,507.918701 240.879135,518.329895 240.879135,529.129700 
	C235.406235,529.129700 230.322449,529.129700 224.862091,529.129700 
	C224.862091,534.602295 224.862091,539.686401 224.862091,545.146179 
	C219.389557,545.146179 214.306427,545.146179 208.845490,545.146179 
	C208.845490,550.619690 208.845490,555.703735 208.845490,561.162781 
	C203.372192,561.162781 198.289536,561.162781 192.828888,561.162781 
	C192.828888,566.637085 192.828888,571.720398 192.828888,577.179688 
	C187.354660,577.179688 182.272324,577.179688 176.812805,577.179688 
	C176.812805,593.319824 176.812805,609.062988 176.812805,625.196655 
	C171.337845,625.196655 166.257370,625.196655 161.301910,625.196655 
	C161.301910,678.669617 161.301910,731.741760 161.301910,785.212646 
	C166.678558,785.212646 171.757095,785.212646 177.219818,785.212646 
	C177.219818,796.020447 177.219818,806.432068 177.219818,817.229126 
	C182.696625,817.229126 187.774673,817.229126 193.237183,817.229126 
	C193.237183,822.705383 193.237183,827.783081 193.237183,833.245483 
	C198.713760,833.245483 203.791550,833.245483 209.253784,833.245483 
	C209.253784,838.722778 209.253784,843.800232 209.253784,849.262085 
	C214.731522,849.262085 219.809219,849.262085 225.270386,849.262085 
	C225.270386,854.740417 225.270386,859.818542 225.270386,865.278687 
	C230.749283,865.278687 235.828079,865.278687 241.286987,865.278687 
	C241.286987,870.757996 241.286987,875.837158 241.286987,881.295837 
	C246.765976,881.295837 251.844910,881.295837 257.302826,881.295837 
	C257.302826,892.106140 257.302826,902.517944 257.302826,913.312500 
	C262.784729,913.312500 267.866943,913.312500 273.320465,913.312500 
	C273.320465,918.792114 273.320465,923.872009 273.320465,929.328735 
	C278.802521,929.328735 283.886353,929.328735 289.160278,929.328735 
	C289.160278,934.685730 289.160278,939.642883 289.160278,944.991821 
	C294.448883,944.991821 299.532990,944.991821 305.000061,944.991821 
	C305.000061,950.457886 305.000061,955.542297 305.000061,961.008545 
	C310.466370,961.008545 315.550629,961.008545 321.016602,961.008545 
	C321.016602,987.812866 321.016602,1014.220825 321.016602,1041.024902 
	C326.484314,1041.024902 331.568542,1041.024902 337.033203,1041.024902 
	C337.033203,1046.492676 337.033203,1051.577026 337.033203,1057.041748 
	C342.501129,1057.041748 347.585266,1057.041748 353.048889,1057.041748 
	C353.048889,1153.179932 353.048889,1248.918701 353.048889,1345.056763 
	C358.517212,1345.056763 363.601105,1345.056763 369.064880,1345.056763 
	C369.064880,1355.860962 369.064880,1366.272827 369.064880,1377.073730 
	C374.534882,1377.073730 379.618927,1377.073730 385.081726,1377.073730 
	C385.081726,1387.878296 385.081726,1398.289673 385.081726,1409.090332 
	C390.552734,1409.090332 395.637085,1409.090332 401.098694,1409.090332 
	C401.098694,1414.560669 401.098694,1419.645264 401.098694,1425.106934 
	C406.569397,1425.106934 411.653625,1425.106934 417.115479,1425.106934 
	C417.115479,1430.578369 417.115479,1435.661255 417.115479,1441.123291 
	C427.921234,1441.123291 438.332458,1441.123291 449.132385,1441.123291 
	C449.132385,1446.595947 449.132385,1451.679565 449.132385,1456.847656 
	C486.667084,1456.847656 523.801880,1456.847656 561.873718,1456.980957 
z"/>
<path fill="#FFFFFF" opacity="1.000000" stroke="none" 
	d="
M560.936646,1456.847656 
	C523.801880,1456.847656 486.667084,1456.847656 449.132385,1456.847656 
	C449.132385,1451.679565 449.132385,1446.595947 449.132385,1441.123291 
	C438.332458,1441.123291 427.921234,1441.123291 417.115479,1441.123291 
	C417.115479,1435.661255 417.115479,1430.578369 417.115479,1425.106934 
	C411.653625,1425.106934 406.569397,1425.106934 401.098694,1425.106934 
	C401.098694,1419.645264 401.098694,1414.560669 401.098694,1409.090332 
	C395.637085,1409.090332 390.552734,1409.090332 385.081726,1409.090332 
	C385.081726,1398.289673 385.081726,1387.878296 385.081726,1377.073730 
	C379.618927,1377.073730 374.534882,1377.073730 369.064880,1377.073730 
	C369.064880,1366.272827 369.064880,1355.860962 369.064880,1345.056763 
	C363.601105,1345.056763 358.517212,1345.056763 353.048889,1345.056763 
	C353.048889,1248.918701 353.048889,1153.179932 353.048889,1057.041748 
	C347.585266,1057.041748 342.501129,1057.041748 337.033203,1057.041748 
	C337.033203,1051.577026 337.033203,1046.492676 337.033203,1041.024902 
	C331.568542,1041.024902 326.484314,1041.024902 321.016602,1041.024902 
	C321.016602,1014.220825 321.016602,987.812866 321.016602,961.008545 
	C315.550629,961.008545 310.466370,961.008545 305.000061,961.008545 
	C305.000061,955.542297 305.000061,950.457886 305.000061,944.991821 
	C299.532990,944.991821 294.448883,944.991821 289.160278,944.991821 
	C289.160278,939.642883 289.160278,934.685730 289.160278,929.328735 
	C283.886353,929.328735 278.802521,929.328735 273.320465,929.328735 
	C273.320465,923.872009 273.320465,918.792114 273.320465,913.312500 
	C267.866943,913.312500 262.784729,913.312500 257.302826,913.312500 
	C257.302826,902.517944 257.302826,892.106140 257.302826,881.295837 
	C251.844910,881.295837 246.765976,881.295837 241.286987,881.295837 
	C241.286987,875.837158 241.286987,870.757996 241.286987,865.278687 
	C235.828079,865.278687 230.749283,865.278687 225.270386,865.278687 
	C225.270386,859.818542 225.270386,854.740417 225.270386,849.262085 
	C219.809219,849.262085 214.731522,849.262085 209.253784,849.262085 
	C209.253784,843.800232 209.253784,838.722778 209.253784,833.245483 
	C203.791550,833.245483 198.713760,833.245483 193.237183,833.245483 
	C193.237183,827.783081 193.237183,822.705383 193.237183,817.229126 
	C187.774673,817.229126 182.696625,817.229126 177.219818,817.229126 
	C177.219818,806.432068 177.219818,796.020447 177.219818,785.212646 
	C171.757095,785.212646 166.678558,785.212646 161.301910,785.212646 
	C161.301910,731.741760 161.301910,678.669617 161.301910,625.196655 
	C166.257370,625.196655 171.337845,625.196655 176.812805,625.196655 
	C176.812805,609.062988 176.812805,593.319824 176.812805,577.179688 
	C182.272324,577.179688 187.354660,577.179688 192.828888,577.179688 
	C192.828888,571.720398 192.828888,566.637085 192.828888,561.162781 
	C198.289536,561.162781 203.372192,561.162781 208.845490,561.162781 
	C208.845490,555.703735 208.845490,550.619690 208.845490,545.146179 
	C214.306427,545.146179 219.389557,545.146179 224.862091,545.146179 
	C224.862091,539.686401 224.862091,534.602295 224.862091,529.129700 
	C230.322449,529.129700 235.406235,529.129700 240.879135,529.129700 
	C240.879135,518.329895 240.879135,507.918701 240.879135,497.112549 
	C251.679153,497.112549 262.090546,497.112549 272.895569,497.112549 
	C272.895569,491.650330 272.895569,486.566650 272.895569,481.095856 
	C278.357452,481.095856 283.441772,481.095856 288.912415,481.095856 
	C288.912415,475.634033 288.912415,470.549561 288.912415,465.079315 
	C294.374573,465.079315 299.459076,465.079315 304.928955,465.079315 
	C304.928955,459.616455 304.928955,454.531830 304.928955,449.062744 
	C310.392151,449.062744 315.476532,449.062744 320.945801,449.062744 
	C320.945801,438.261597 320.945801,427.849976 320.945801,417.046021 
	C326.409973,417.046021 331.493958,417.046021 336.962677,417.046021 
	C336.962677,406.244354 336.962677,395.832367 336.962677,385.029175 
	C342.429108,385.029175 347.512543,385.029175 352.979279,385.029175 
	C352.979279,379.563995 352.979279,374.479584 352.979279,369.012329 
	C358.444489,369.012329 363.528778,369.012329 368.996002,369.012329 
	C368.996002,358.210236 368.996002,347.798004 368.996002,336.995544 
	C374.462616,336.995544 379.546692,336.995544 384.836670,336.995544 
	C384.836670,320.976837 384.836670,305.355072 384.836670,289.333008 
	C390.114532,289.333008 395.195557,289.333008 400.675934,289.333008 
	C400.675934,283.876282 400.675934,278.795959 400.675934,273.315796 
	C406.133209,273.315796 411.212799,273.315796 416.692474,273.315796 
	C416.692474,267.858276 416.692474,262.778748 416.692474,257.299561 
	C422.150208,257.299561 427.229736,257.299561 432.710022,257.299561 
	C432.710022,246.504791 432.710022,236.092880 432.710022,225.283188 
	C438.168915,225.283188 443.247498,225.283188 448.726898,225.283188 
	C448.726898,214.487610 448.726898,204.075546 448.726898,193.266235 
	C454.187958,193.266235 459.265442,193.266235 464.743683,193.266235 
	C464.743683,177.133743 464.743683,161.390564 464.743683,145.249176 
	C470.205902,145.249176 475.282959,145.249176 480.759369,145.249176 
	C480.759369,139.786240 480.759369,134.708359 480.759369,129.231262 
	C491.555603,129.231262 501.967529,129.231262 512.775818,129.231262 
	C512.775818,123.768280 512.775818,118.690277 512.775818,113.214462 
	C528.909058,113.214462 544.652222,113.214462 560.792664,113.214462 
	C560.792664,107.752075 560.792664,102.673027 560.792664,97.197723 
	C576.926208,97.197723 592.669373,97.197723 608.809509,97.197723 
	C608.809509,91.737167 608.809509,86.655807 608.809509,81.290878 
	C667.613953,81.290878 726.019287,81.290878 784.825439,81.290878 
	C784.825439,86.278046 784.825439,91.360649 784.825439,96.834923 
	C795.624268,96.834923 806.035889,96.834923 816.842407,96.834923 
	C816.842407,102.296638 816.842407,107.378464 816.842407,112.851776 
	C827.641296,112.851776 838.053223,112.851776 848.859375,112.851776 
	C848.859375,118.311707 848.859375,123.395485 848.859375,128.868622 
	C859.658875,128.868622 870.070496,128.868622 880.876343,128.868622 
	C880.876343,134.330307 880.876343,139.413605 880.876343,144.885422 
	C891.676514,144.885422 902.087891,144.885422 912.893188,144.885422 
	C912.893188,150.347031 912.893188,155.431183 912.893188,160.902191 
	C923.693787,160.902191 934.105286,160.902191 944.910034,160.902191 
	C944.910034,166.364334 944.910034,171.448746 944.910034,176.918915 
	C961.045471,176.918915 976.788696,176.918915 992.926880,176.918915 
	C992.926880,182.381790 992.926880,187.465973 992.926880,192.935333 
	C998.390076,192.935333 1003.474365,192.935333 1008.943665,192.935333 
	C1008.943665,198.399170 1008.943665,203.483566 1008.943665,208.951950 
	C1014.407471,208.951950 1019.491699,208.951950 1024.960205,208.951950 
	C1024.960205,214.417114 1024.960205,219.500763 1024.960205,224.968811 
	C1035.761719,224.968811 1046.173950,224.968811 1056.977051,224.968811 
	C1056.977051,230.434067 1056.977051,235.518082 1056.977051,240.985687 
	C1067.779053,240.985687 1078.191406,240.985687 1088.994141,240.985687 
	C1088.994141,246.451782 1088.994141,251.535858 1088.994141,257.002625 
	C1105.130737,257.002625 1120.873779,257.002625 1136.835693,257.002625 
	C1136.835693,267.686981 1136.835693,277.975739 1136.835693,288.665588 
	C1174.128418,288.665588 1211.200806,288.665588 1248.673096,288.665588 
	C1248.673096,294.117767 1248.673096,299.201141 1248.673096,304.683228 
	C1275.474243,304.683228 1301.882202,304.683228 1328.689697,304.683228 
	C1328.689697,310.140930 1328.689697,315.220062 1328.689697,320.699951 
	C1339.485229,320.699951 1349.896729,320.699951 1360.706665,320.699951 
	C1360.706665,326.158081 1360.706665,331.237061 1360.706665,336.716766 
	C1376.838867,336.716766 1392.581909,336.716766 1408.723755,336.716766 
	C1408.723755,342.176331 1408.723755,347.254425 1408.723755,352.732605 
	C1414.184814,352.732605 1419.262817,352.732605 1424.740723,352.732605 
	C1424.740723,358.194153 1424.740723,363.271698 1424.740723,368.750061 
	C1435.536255,368.750061 1445.948364,368.750061 1456.757324,368.750061 
	C1456.757324,374.212555 1456.757324,379.289734 1456.757324,384.766052 
	C1462.220337,384.766052 1467.298340,384.766052 1472.774292,384.766052 
	C1472.774292,390.228546 1472.774292,395.306671 1472.774292,400.782288 
	C1478.236816,400.782288 1483.315430,400.782288 1489.006104,400.782288 
	C1489.006104,411.432526 1489.006104,421.694733 1489.016357,432.891968 
	C1489.026611,465.417053 1489.026611,497.007080 1489.026611,529.120361 
	C1483.335693,529.120361 1478.412354,529.120361 1472.811768,529.120361 
	C1472.811768,550.674744 1472.811768,571.710754 1472.811768,593.257202 
	C1467.192871,593.257202 1462.276611,593.257202 1456.850830,593.257202 
	C1456.850830,604.027649 1456.850830,614.280884 1456.850830,625.041992 
	C1451.417114,625.041992 1446.493530,625.041992 1440.888916,625.041992 
	C1440.888916,635.928040 1440.888916,646.303528 1440.888916,657.180969 
	C1435.271973,657.180969 1430.352783,657.180969 1424.927002,657.180969 
	C1424.927002,667.950134 1424.927002,678.200623 1424.927002,689.142822 
	C1419.374878,689.142822 1414.333252,689.142822 1408.789062,689.142822 
	C1408.789062,705.425049 1408.789062,721.005798 1408.789062,737.103638 
	C1403.353271,737.103638 1398.429321,737.103638 1392.827515,737.103638 
	C1392.827515,747.992615 1392.827515,758.366699 1392.827515,769.242554 
	C1387.208252,769.242554 1382.291748,769.242554 1376.865479,769.242554 
	C1376.865479,780.012573 1376.865479,790.265869 1376.865479,801.205200 
	C1371.311035,801.205200 1366.263428,801.205200 1360.728271,801.205200 
	C1360.728271,806.826599 1360.728271,811.742126 1360.728271,817.167114 
	C1355.286377,817.167114 1350.366455,817.167114 1345.290894,817.167114 
	C1345.290894,859.936768 1345.290894,902.176941 1345.290894,945.122742 
	C1350.604248,945.122742 1355.645630,945.122742 1361.189941,945.122742 
	C1361.189941,972.070251 1361.189941,998.315979 1361.189941,1025.081543 
	C1366.623657,1025.081543 1371.547485,1025.081543 1376.575195,1025.081543 
	C1376.575195,1067.970337 1376.575195,1110.328857 1376.575195,1153.214355 
	C1371.237427,1153.214355 1366.319946,1153.214355 1360.894653,1153.214355 
	C1360.894653,1174.650513 1360.894653,1195.564453 1360.894653,1217.174316 
	C1355.342407,1217.174316 1350.296265,1217.174316 1344.757080,1217.174316 
	C1344.757080,1228.125122 1344.757080,1238.376587 1344.757080,1249.135864 
	C1339.319214,1249.135864 1334.396729,1249.135864 1328.792969,1249.135864 
	C1328.792969,1254.690186 1328.792969,1259.737671 1328.792969,1265.272949 
	C1323.171997,1265.272949 1318.256836,1265.272949 1312.832520,1265.272949 
	C1312.832520,1276.047119 1312.832520,1286.299072 1312.832520,1297.060303 
	C1307.399780,1297.060303 1302.475952,1297.060303 1296.869873,1297.060303 
	C1296.869873,1302.612183 1296.869873,1307.653931 1296.869873,1313.199707 
	C1291.252686,1313.199707 1286.334351,1313.199707 1280.907227,1313.199707 
	C1280.907227,1318.635132 1280.907227,1323.559082 1280.907227,1329.161621 
	C1270.019043,1329.161621 1259.644775,1329.161621 1248.768311,1329.161621 
	C1248.768311,1334.780518 1248.768311,1339.697266 1248.768311,1344.674316 
	C1232.661499,1344.674316 1217.085938,1344.674316 1200.807373,1344.674316 
	C1200.807373,1339.323486 1200.807373,1334.278809 1200.807373,1328.740967 
	C1168.526123,1328.740967 1136.947998,1328.740967 1104.849854,1328.740967 
	C1104.849854,1323.304199 1104.849854,1318.382812 1104.849854,1312.957031 
	C1099.418091,1312.957031 1094.494385,1312.957031 1088.886963,1312.957031 
	C1088.886963,1307.406250 1088.886963,1302.364746 1088.886963,1296.818848 
	C1072.605469,1296.818848 1057.024658,1296.818848 1040.926270,1296.818848 
	C1040.926270,1291.384399 1040.926270,1286.460693 1040.926270,1281.421875 
	C1008.703064,1281.421875 977.010559,1281.421875 944.791443,1281.421875 
	C944.791443,1286.756592 944.791443,1291.674316 944.791443,1297.098999 
	C918.022095,1297.098999 891.776611,1297.098999 864.832703,1297.098999 
	C864.832703,1302.651001 864.832703,1307.692871 864.832703,1313.233887 
	C832.551758,1313.233887 800.973694,1313.233887 768.875244,1313.233887 
	C768.875244,1318.667847 768.875244,1323.588867 768.875244,1329.195068 
	C763.320374,1329.195068 758.272278,1329.195068 752.736206,1329.195068 
	C752.736206,1340.146362 752.736206,1350.397339 752.736206,1361.156006 
	C741.964905,1361.156006 731.713013,1361.156006 720.951050,1361.156006 
	C720.951050,1366.590088 720.951050,1371.513672 720.951050,1377.117920 
	C710.064575,1377.117920 699.689331,1377.117920 688.812134,1377.117920 
	C688.812134,1382.735107 688.812134,1387.653931 688.812134,1393.080078 
	C678.043335,1393.080078 667.792419,1393.080078 656.850220,1393.080078 
	C656.850220,1398.632446 656.850220,1403.674194 656.850220,1409.218506 
	C645.900452,1409.218506 635.647583,1409.218506 624.888428,1409.218506 
	C624.888428,1414.655151 624.888428,1419.578857 624.888428,1425.179932 
	C603.334595,1425.179932 582.298218,1425.179932 560.936646,1425.179932 
	C560.936646,1436.204346 560.936646,1446.526001 560.936646,1456.847656 
M753.105957,912.527954 
	C753.397461,912.629761 753.688965,912.731628 754.910461,912.976501 
	C764.923401,913.019592 774.936279,913.062744 784.972412,913.027588 
	C784.972412,913.027588 784.894104,913.050781 784.985596,913.972595 
	C785.045898,918.654053 785.106262,923.335449 785.105957,928.527954 
	C785.397461,928.629761 785.688965,928.731628 786.910461,928.976440 
	C807.687439,928.984314 828.464478,929.017090 849.241455,928.993713 
	C875.499939,928.964233 901.758423,928.888916 928.527954,928.894043 
	C928.629761,928.602539 928.731628,928.311035 928.976318,927.095215 
	C929.015320,922.416870 929.054321,917.738525 929.008667,913.008728 
	C929.008667,913.008728 929.060242,913.093201 929.986938,913.013000 
	C939.996948,912.953125 950.006897,912.893250 960.527893,912.894043 
	C960.629761,912.602539 960.731628,912.311035 960.976318,911.095215 
	C961.015259,906.416870 961.054260,901.738525 961.008667,897.008728 
	C961.008667,897.008728 961.060242,897.093201 961.982117,897.013062 
	C966.660400,896.953186 971.338623,896.893311 976.527893,896.894043 
	C976.629761,896.602539 976.731628,896.311035 976.976318,895.095215 
	C977.015320,890.416870 977.054260,885.738525 977.008667,881.008728 
	C977.008667,881.008728 977.060242,881.093201 977.982117,881.013062 
	C982.660400,880.953186 987.338623,880.893311 992.527893,880.894043 
	C992.629761,880.602539 992.731567,880.311035 992.976318,879.095215 
	C993.015320,874.416870 993.054321,869.738525 993.008667,865.008728 
	C993.008667,865.008728 993.060242,865.093201 993.982117,865.013062 
	C998.660400,864.953186 1003.338623,864.893311 1008.527893,864.894043 
	C1008.629761,864.602539 1008.731567,864.311035 1008.976318,863.095215 
	C1009.015259,858.416870 1009.054260,853.738525 1009.008667,849.008728 
	C1009.008667,849.008728 1009.060242,849.093201 1009.982117,849.013062 
	C1014.660339,848.953186 1019.338623,848.893311 1024.527832,848.894043 
	C1024.629761,848.602539 1024.731567,848.310974 1024.976440,847.095093 
	C1025.015381,842.416809 1025.054321,837.738525 1025.008545,833.008667 
	C1025.008545,833.008667 1025.060303,833.093262 1025.982178,833.013062 
	C1030.660400,832.953186 1035.338623,832.893311 1040.527832,832.894043 
	C1040.629761,832.602539 1040.731567,832.310974 1040.976440,831.095093 
	C1041.015381,826.416809 1041.054321,821.738525 1041.008545,817.008667 
	C1041.008545,817.008667 1041.060303,817.093262 1041.982178,817.013062 
	C1046.660400,816.953186 1051.338623,816.893311 1056.527832,816.894043 
	C1056.629761,816.602539 1056.731567,816.310974 1056.976562,815.089478 
	C1057.015503,799.746399 1057.054321,784.403320 1057.008545,769.008667 
	C1057.008545,769.008667 1057.060303,769.093262 1057.982178,769.013000 
	C1062.660400,768.953125 1067.338623,768.893250 1072.527710,768.894043 
	C1072.629639,768.602478 1072.731567,768.310974 1072.976562,767.089478 
	C1072.984375,746.312500 1073.017090,725.535583 1072.993774,704.758606 
	C1072.964233,678.500122 1072.889038,652.241699 1072.894165,625.472107 
	C1072.602661,625.370239 1072.311035,625.268433 1071.094727,625.023621 
	C1066.522461,625.023621 1061.950195,625.023621 1056.833496,625.023621 
	C1056.833496,619.790039 1056.833496,614.886658 1056.894165,609.472107 
	C1056.602661,609.370239 1056.311035,609.268372 1055.096924,609.023804 
	C1050.725342,609.071411 1046.353882,609.119019 1041.522095,609.010193 
	C1041.522095,609.010193 1041.047852,608.902710 1041.007202,607.980530 
	C1041.007202,603.056091 1041.007202,598.131653 1041.007202,592.888306 
	C1035.356934,592.888306 1030.410400,592.888306 1024.965820,592.888306 
	C1024.965820,587.501099 1024.965820,582.426880 1024.965820,576.866821 
	C1019.397339,576.866821 1014.326965,576.866821 1008.767761,576.866821 
	C1008.767761,571.292175 1008.767761,566.224670 1008.767761,560.845459 
	C1003.312378,560.845459 998.366760,560.845459 992.923157,560.845459 
	C992.923157,555.455200 992.923157,550.382324 992.923157,544.824097 
	C987.351196,544.824097 982.285339,544.824097 976.724976,544.824097 
	C976.724976,539.247437 976.724976,534.177063 976.724976,528.802612 
	C971.268677,528.802612 966.325439,528.802612 960.880371,528.802612 
	C960.880371,523.411438 960.880371,518.339844 960.880371,512.781372 
	C955.306274,512.781372 950.240967,512.781372 944.858948,512.781372 
	C944.858948,507.326721 944.858948,502.380737 944.858948,496.937256 
	C928.800476,496.937256 913.070801,496.937256 896.837891,496.937256 
	C896.837891,491.366760 896.837891,486.300293 896.837891,481.385742 
	C853.932861,481.385742 811.542664,481.385742 768.818970,481.385742 
	C768.818970,486.714172 768.818970,491.658997 768.818970,497.102509 
	C758.093811,497.102509 747.694031,497.102509 736.798218,497.102509 
	C736.798218,502.676086 736.798218,507.741272 736.798218,513.123962 
	C731.344543,513.123962 726.398071,513.123962 720.953796,513.123962 
	C720.953796,518.511658 720.953796,523.585999 720.953796,529.145264 
	C715.384460,529.145264 710.315796,529.145264 704.755615,529.145264 
	C704.755615,534.720459 704.755615,539.789429 704.755615,545.166748 
	C699.299866,545.166748 694.354797,545.166748 688.911011,545.166748 
	C688.911011,550.557678 688.911011,555.630005 688.911011,561.188110 
	C683.338257,561.188110 678.272827,561.188110 672.711426,561.188110 
	C672.711426,566.763428 672.711426,571.833557 672.711426,577.206604 
	C667.254395,577.206604 662.312256,577.206604 656.868164,577.206604 
	C656.868164,582.601196 656.868164,587.671692 656.868164,593.231323 
	C651.293884,593.231323 646.226929,593.231323 640.847412,593.231323 
	C640.847412,609.351257 640.847412,624.959595 640.847412,641.075073 
	C635.457336,641.075073 630.384521,641.075073 625.342712,641.075073 
	C625.342712,678.646667 625.342712,715.703308 625.342712,753.271729 
	C630.747925,753.271729 635.817932,753.271729 641.192627,753.271729 
	C641.192627,769.392029 641.192627,785.000427 641.192627,801.115051 
	C646.583435,801.115051 651.653809,801.115051 657.214172,801.115051 
	C657.214172,806.689026 657.214172,811.754272 657.214172,817.136475 
	C662.668762,817.136475 667.614990,817.136475 673.058838,817.136475 
	C673.058838,822.525269 673.058838,827.599243 673.058838,833.157898 
	C678.629395,833.157898 683.696411,833.157898 689.256958,833.157898 
	C689.256958,838.733643 689.256958,843.803650 689.256958,849.179321 
	C694.713196,849.179321 699.658020,849.179321 705.101562,849.179321 
	C705.101562,854.570435 705.101562,859.642517 705.101562,865.200684 
	C710.674988,865.200684 715.740173,865.200684 721.123047,865.200684 
	C721.123047,870.654541 721.123047,875.601074 721.123047,881.045288 
	C726.510742,881.045288 731.585083,881.045288 737.143982,881.045288 
	C737.143982,886.614868 737.143982,891.683777 737.143982,896.435242 
	C742.842773,896.994934 748.004517,897.501953 753.047363,898.493713 
	C753.047363,898.493713 753.166565,898.978516 753.023804,899.898499 
	C753.071411,903.937988 753.119019,907.977417 753.105957,912.527954 
z"/>
<path fill="#B4B4B4" opacity="1.000000" stroke="none" 
	d="
M561.405151,1456.914307 
	C560.936646,1446.526001 560.936646,1436.204346 560.936646,1425.179932 
	C582.298218,1425.179932 603.334595,1425.179932 624.888428,1425.179932 
	C624.888428,1419.578857 624.888428,1414.655151 624.888428,1409.218506 
	C635.647583,1409.218506 645.900452,1409.218506 656.850220,1409.218506 
	C656.850220,1403.674194 656.850220,1398.632446 656.850220,1393.080078 
	C667.792419,1393.080078 678.043335,1393.080078 688.812134,1393.080078 
	C688.812134,1387.653931 688.812134,1382.735107 688.812134,1377.117920 
	C699.689331,1377.117920 710.064575,1377.117920 720.951050,1377.117920 
	C720.951050,1371.513672 720.951050,1366.590088 720.951050,1361.156006 
	C731.713013,1361.156006 741.964905,1361.156006 752.736206,1361.156006 
	C752.736206,1350.397339 752.736206,1340.146362 752.736206,1329.195068 
	C758.272278,1329.195068 763.320374,1329.195068 768.875244,1329.195068 
	C768.875244,1323.588867 768.875244,1318.667847 768.875244,1313.233887 
	C800.973694,1313.233887 832.551758,1313.233887 864.832703,1313.233887 
	C864.832703,1307.692871 864.832703,1302.651001 864.832703,1297.098999 
	C891.776611,1297.098999 918.022095,1297.098999 944.791443,1297.098999 
	C944.791443,1291.674316 944.791443,1286.756592 944.791443,1281.421875 
	C977.010559,1281.421875 1008.703064,1281.421875 1040.926270,1281.421875 
	C1040.926270,1286.460693 1040.926270,1291.384399 1040.926270,1296.818848 
	C1057.024658,1296.818848 1072.605469,1296.818848 1088.886963,1296.818848 
	C1088.886963,1302.364746 1088.886963,1307.406250 1088.886963,1312.957031 
	C1094.494385,1312.957031 1099.418091,1312.957031 1104.849854,1312.957031 
	C1104.849854,1318.382812 1104.849854,1323.304199 1104.849854,1328.740967 
	C1136.947998,1328.740967 1168.526123,1328.740967 1200.807373,1328.740967 
	C1200.807373,1334.278809 1200.807373,1339.323486 1200.807373,1344.674316 
	C1217.085938,1344.674316 1232.661499,1344.674316 1248.768311,1344.674316 
	C1248.768311,1339.697266 1248.768311,1334.780518 1248.768311,1329.161621 
	C1259.644775,1329.161621 1270.019043,1329.161621 1280.907227,1329.161621 
	C1280.907227,1323.559082 1280.907227,1318.635132 1280.907227,1313.199707 
	C1286.334351,1313.199707 1291.252686,1313.199707 1296.869873,1313.199707 
	C1296.869873,1307.653931 1296.869873,1302.612183 1296.869873,1297.060303 
	C1302.475952,1297.060303 1307.399780,1297.060303 1312.832520,1297.060303 
	C1312.832520,1286.299072 1312.832520,1276.047119 1312.832520,1265.272949 
	C1318.256836,1265.272949 1323.171997,1265.272949 1328.792969,1265.272949 
	C1328.792969,1259.737671 1328.792969,1254.690186 1328.792969,1249.135864 
	C1334.396729,1249.135864 1339.319214,1249.135864 1344.757080,1249.135864 
	C1344.757080,1238.376587 1344.757080,1228.125122 1344.757080,1217.174316 
	C1350.296265,1217.174316 1355.342407,1217.174316 1360.894653,1217.174316 
	C1360.894653,1195.564453 1360.894653,1174.650513 1360.894653,1153.214355 
	C1366.319946,1153.214355 1371.237427,1153.214355 1376.575195,1153.214355 
	C1376.575195,1110.328857 1376.575195,1067.970337 1376.575195,1025.081543 
	C1371.547485,1025.081543 1366.623657,1025.081543 1361.189941,1025.081543 
	C1361.189941,998.315979 1361.189941,972.070251 1361.189941,945.122742 
	C1355.645630,945.122742 1350.604248,945.122742 1345.290894,945.122742 
	C1345.290894,902.176941 1345.290894,859.936768 1345.290894,817.167114 
	C1350.366455,817.167114 1355.286377,817.167114 1360.728271,817.167114 
	C1360.728271,811.742126 1360.728271,806.826599 1360.728271,801.205200 
	C1366.263428,801.205200 1371.311035,801.205200 1376.865479,801.205200 
	C1376.865479,790.265869 1376.865479,780.012573 1376.865479,769.242554 
	C1382.291748,769.242554 1387.208252,769.242554 1392.827515,769.242554 
	C1392.827515,758.366699 1392.827515,747.992615 1392.827515,737.103638 
	C1398.429321,737.103638 1403.353271,737.103638 1408.789062,737.103638 
	C1408.789062,721.005798 1408.789062,705.425049 1408.789062,689.142822 
	C1414.333252,689.142822 1419.374878,689.142822 1424.927002,689.142822 
	C1424.927002,678.200623 1424.927002,667.950134 1424.927002,657.180969 
	C1430.352783,657.180969 1435.271973,657.180969 1440.888916,657.180969 
	C1440.888916,646.303528 1440.888916,635.928040 1440.888916,625.041992 
	C1446.493530,625.041992 1451.417114,625.041992 1456.850830,625.041992 
	C1456.850830,614.280884 1456.850830,604.027649 1456.850830,593.257202 
	C1462.276611,593.257202 1467.192871,593.257202 1472.811768,593.257202 
	C1472.811768,571.710754 1472.811768,550.674744 1472.811768,529.120361 
	C1478.412354,529.120361 1483.335693,529.120361 1489.026611,529.120361 
	C1489.026611,497.007080 1489.026611,465.417053 1489.056763,433.351257 
	C1499.550049,432.875488 1510.013184,432.875488 1520.735962,432.875488 
	C1520.735962,475.748535 1520.735962,518.142456 1520.735962,560.834839 
	C1515.643799,560.834839 1510.695068,560.834839 1505.273315,560.834839 
	C1505.273315,582.188171 1505.273315,603.254395 1505.273315,624.793091 
	C1499.747314,624.793091 1494.677979,624.793091 1489.137939,624.793091 
	C1489.137939,635.655334 1489.137939,646.059448 1489.137939,656.929688 
	C1483.610352,656.929688 1478.534424,656.929688 1473.178467,656.929688 
	C1473.178467,667.677795 1473.178467,677.957642 1473.178467,688.711914 
	C1467.832886,688.711914 1462.762573,688.711914 1457.218750,688.711914 
	C1457.218750,699.571716 1457.218750,709.975891 1457.218750,720.848511 
	C1451.693726,720.848511 1446.619751,720.848511 1441.082764,720.848511 
	C1441.082764,731.712524 1441.082764,742.116394 1441.082764,752.809570 
	C1435.670654,752.809570 1430.723511,752.809570 1425.300659,752.809570 
	C1425.300659,768.828674 1425.300659,784.561218 1425.300659,800.766724 
	C1419.774414,800.766724 1414.704712,800.766724 1409.164185,800.766724 
	C1409.164185,811.628052 1409.164185,822.032288 1409.164185,832.903320 
	C1403.638184,832.903320 1398.561890,832.903320 1393.251709,832.903320 
	C1393.251709,843.773071 1393.251709,854.168457 1393.251709,864.862671 
	C1398.383667,864.862671 1403.333496,864.862671 1408.751221,864.862671 
	C1408.751221,944.885254 1408.751221,1024.612549 1408.751221,1104.814331 
	C1414.274170,1104.814331 1419.344116,1104.814331 1424.704102,1104.814331 
	C1424.704102,1115.681396 1424.704102,1126.077393 1424.704102,1136.951294 
	C1419.589722,1136.951294 1414.512451,1136.951294 1409.157715,1136.951294 
	C1409.157715,1163.701538 1409.157715,1189.979492 1409.157715,1216.731934 
	C1403.813110,1216.731934 1398.741455,1216.731934 1393.198975,1216.731934 
	C1393.198975,1232.929199 1393.198975,1248.663330 1393.198975,1264.868164 
	C1387.674683,1264.868164 1382.599121,1264.868164 1377.063477,1264.868164 
	C1377.063477,1281.068359 1377.063477,1296.801758 1377.063477,1312.827393 
	C1371.651123,1312.827393 1366.702881,1312.827393 1361.281006,1312.827393 
	C1361.281006,1318.172485 1361.281006,1323.244019 1361.281006,1328.787964 
	C1350.421509,1328.787964 1340.017212,1328.787964 1329.144775,1328.787964 
	C1329.144775,1334.312622 1329.144775,1339.387573 1329.144775,1344.923828 
	C1323.619263,1344.923828 1318.541504,1344.923828 1313.184570,1344.923828 
	C1313.184570,1350.336792 1313.184570,1355.284424 1313.184570,1360.706909 
	C1307.839111,1360.706909 1302.769043,1360.706909 1297.224854,1360.706909 
	C1297.224854,1366.233154 1297.224854,1371.302856 1297.224854,1376.684326 
	C1238.357300,1376.684326 1179.963745,1376.684326 1121.093994,1376.684326 
	C1121.093994,1371.636475 1121.093994,1366.560059 1121.093994,1361.025635 
	C1104.893188,1361.025635 1089.159790,1361.025635 1073.134888,1361.025635 
	C1073.134888,1355.613892 1073.134888,1350.664062 1073.134888,1345.242432 
	C1062.452759,1345.242432 1052.048706,1345.242432 1041.175293,1345.242432 
	C1041.175293,1339.715698 1041.175293,1334.645020 1041.175293,1329.290771 
	C992.973328,1329.290771 945.245972,1329.290771 897.042725,1329.290771 
	C897.042725,1334.416626 897.042725,1339.493896 897.042725,1344.848633 
	C875.626282,1344.848633 854.680969,1344.848633 833.261719,1344.848633 
	C833.261719,1350.189941 833.261719,1355.265015 833.261719,1360.807495 
	C822.401245,1360.807495 811.996887,1360.807495 801.125122,1360.807495 
	C801.125122,1366.332520 801.125122,1371.408081 801.125122,1376.943604 
	C795.598511,1376.943604 790.520691,1376.943604 785.164917,1376.943604 
	C785.164917,1382.354736 785.164917,1387.304810 785.164917,1392.726685 
	C779.820312,1392.726685 774.748169,1392.726685 769.205139,1392.726685 
	C769.205139,1398.253540 769.205139,1403.323120 769.205139,1408.863403 
	C758.343201,1408.863403 747.939148,1408.863403 737.069031,1408.863403 
	C737.069031,1414.391235 737.069031,1419.467163 737.069031,1424.822754 
	C731.658020,1424.822754 726.707947,1424.822754 721.285889,1424.822754 
	C721.285889,1430.167969 721.285889,1435.238892 721.285889,1440.782471 
	C699.755005,1440.782471 678.688782,1440.782471 657.151001,1440.782471 
	C657.151001,1446.309448 657.151001,1451.382202 657.151001,1456.980957 
	C625.077087,1456.980957 593.475403,1456.980957 561.405151,1456.914307 
z"/>
<path fill="#FFA200" opacity="1.000000" stroke="none" 
	d="
M753.166260,898.008911 
	C748.004517,897.501953 742.842773,896.994934 737.143982,896.435242 
	C737.143982,891.683777 737.143982,886.614868 737.143982,881.045288 
	C731.585083,881.045288 726.510742,881.045288 721.123047,881.045288 
	C721.123047,875.601074 721.123047,870.654541 721.123047,865.200684 
	C715.740173,865.200684 710.674988,865.200684 705.101562,865.200684 
	C705.101562,859.642517 705.101562,854.570435 705.101562,849.179321 
	C699.658020,849.179321 694.713196,849.179321 689.256958,849.179321 
	C689.256958,843.803650 689.256958,838.733643 689.256958,833.157898 
	C683.696411,833.157898 678.629395,833.157898 673.058838,833.157898 
	C673.058838,827.599243 673.058838,822.525269 673.058838,817.136475 
	C667.614990,817.136475 662.668762,817.136475 657.214172,817.136475 
	C657.214172,811.754272 657.214172,806.689026 657.214172,801.115051 
	C651.653809,801.115051 646.583435,801.115051 641.192627,801.115051 
	C641.192627,785.000427 641.192627,769.392029 641.192627,753.271729 
	C635.817932,753.271729 630.747925,753.271729 625.342712,753.271729 
	C625.342712,715.703308 625.342712,678.646667 625.342712,641.075073 
	C630.384521,641.075073 635.457336,641.075073 640.847412,641.075073 
	C640.847412,624.959595 640.847412,609.351257 640.847412,593.231323 
	C646.226929,593.231323 651.293884,593.231323 656.868164,593.231323 
	C656.868164,587.671692 656.868164,582.601196 656.868164,577.206604 
	C662.312256,577.206604 667.254395,577.206604 672.711426,577.206604 
	C672.711426,571.833557 672.711426,566.763428 672.711426,561.188110 
	C678.272827,561.188110 683.338257,561.188110 688.911011,561.188110 
	C688.911011,555.630005 688.911011,550.557678 688.911011,545.166748 
	C694.354797,545.166748 699.299866,545.166748 704.755615,545.166748 
	C704.755615,539.789429 704.755615,534.720459 704.755615,529.145264 
	C710.315796,529.145264 715.384460,529.145264 720.953796,529.145264 
	C720.953796,523.585999 720.953796,518.511658 720.953796,513.123962 
	C726.398071,513.123962 731.344543,513.123962 736.798218,513.123962 
	C736.798218,507.741272 736.798218,502.676086 736.798218,497.102509 
	C747.694031,497.102509 758.093811,497.102509 768.818970,497.102509 
	C768.818970,491.658997 768.818970,486.714172 768.818970,481.385742 
	C811.542664,481.385742 853.932861,481.385742 896.837891,481.385742 
	C896.837891,486.300293 896.837891,491.366760 896.837891,496.937256 
	C913.070801,496.937256 928.800476,496.937256 944.858948,496.937256 
	C944.858948,502.380737 944.858948,507.326721 944.858948,512.781372 
	C950.240967,512.781372 955.306274,512.781372 960.880371,512.781372 
	C960.880371,518.339844 960.880371,523.411438 960.880371,528.802612 
	C966.325439,528.802612 971.268677,528.802612 976.724976,528.802612 
	C976.724976,534.177063 976.724976,539.247437 976.724976,544.824097 
	C982.285339,544.824097 987.351196,544.824097 992.923157,544.824097 
	C992.923157,550.382324 992.923157,555.455200 992.923157,560.845459 
	C998.366760,560.845459 1003.312378,560.845459 1008.767761,560.845459 
	C1008.767761,566.224670 1008.767761,571.292175 1008.767761,576.866821 
	C1014.326965,576.866821 1019.397339,576.866821 1024.965820,576.866821 
	C1024.965820,582.426880 1024.965820,587.501099 1024.965820,592.888306 
	C1030.410400,592.888306 1035.356934,592.888306 1041.007202,592.888306 
	C1041.007202,598.131653 1041.007202,603.056091 1041.016479,608.714478 
	C1041.024658,609.630432 1041.023438,609.812561 1041.015137,610.463562 
	C1041.012085,620.623840 1041.016357,630.315186 1041.118774,640.225342 
	C1041.410034,640.717712 1041.668701,640.896240 1042.460693,640.986206 
	C1045.752930,640.995117 1048.616943,641.298157 1051.393066,640.933350 
	C1056.219116,640.299255 1057.108398,642.444275 1057.088379,646.824341 
	C1056.925781,682.212524 1056.990234,717.601685 1056.739014,752.997192 
	C1056.492676,753.003845 1056.000244,753.023254 1055.535522,753.015869 
	C1050.711548,753.012390 1046.352417,753.016357 1041.774414,753.118652 
	C1041.282227,753.410156 1041.103760,753.668884 1041.013672,754.462280 
	C1040.999756,770.284363 1040.992432,785.637512 1040.739014,800.997192 
	C1040.492676,801.003845 1040.000244,801.023254 1039.535522,801.015869 
	C1034.711548,801.012451 1030.352417,801.016418 1025.774414,801.118652 
	C1025.282227,801.410156 1025.103760,801.668884 1025.013672,802.459656 
	C1024.999878,807.614258 1024.992676,812.302429 1024.739014,816.997192 
	C1024.492676,817.003845 1024.000244,817.023254 1023.535522,817.015808 
	C1018.711731,817.012329 1014.352600,817.016296 1009.774658,817.118530 
	C1009.282349,817.410034 1009.103882,817.668884 1009.013794,818.459656 
	C1009.000061,823.614258 1008.992859,828.302429 1008.739502,832.997192 
	C1008.493408,833.003845 1008.001343,833.023254 1007.536621,833.015869 
	C1002.712402,833.012390 998.352905,833.016357 993.774658,833.118530 
	C993.282349,833.410034 993.103882,833.668884 993.013794,834.459656 
	C993.000122,839.614258 992.992920,844.302429 992.739502,848.997192 
	C992.493408,849.003845 992.001343,849.023254 991.536621,849.015869 
	C986.712402,849.012390 982.352905,849.016357 977.774658,849.118530 
	C977.282349,849.410034 977.103882,849.668884 977.013794,850.459656 
	C977.000122,855.614258 976.992859,860.302429 976.739502,864.997192 
	C976.493408,865.003845 976.001343,865.023254 975.536621,865.015808 
	C970.712402,865.012329 966.352905,865.016296 961.774658,865.118530 
	C961.282349,865.410034 961.103882,865.668884 961.013794,866.459656 
	C961.000122,871.614258 960.992859,876.302429 960.739502,880.997192 
	C960.493408,881.003845 960.001343,881.023254 959.536621,881.015869 
	C954.712402,881.012390 950.352905,881.016357 945.774658,881.118530 
	C945.282349,881.410034 945.103882,881.668884 945.013855,882.459656 
	C945.000122,887.614258 944.992920,892.302429 944.739563,896.997192 
	C944.493408,897.003845 944.001343,897.023254 943.532654,897.015808 
	C928.040466,897.012329 913.016968,897.016357 897.774658,897.118530 
	C897.282349,897.410034 897.103882,897.668884 897.013794,898.459656 
	C897.000122,903.614258 896.992859,908.302429 896.739502,912.997192 
	C896.493408,913.003845 896.001343,913.023254 895.532654,913.015747 
	C858.340698,913.022461 821.617371,913.036621 784.894104,913.050781 
	C784.894104,913.050781 784.972412,913.027588 784.976562,912.592773 
	C784.980347,907.436462 784.979980,902.714966 784.881470,897.774658 
	C784.589966,897.282349 784.331116,897.103882 783.541809,897.013855 
	C773.382812,897.345764 763.688782,897.684204 753.787720,898.015869 
	C753.580627,898.009094 753.166260,898.008850 753.166260,898.008911 
M784.504944,576.845581 
	C784.847412,576.666687 784.957520,576.393982 784.963379,575.102051 
	C784.920654,570.726196 784.877930,566.350342 784.845581,561.495056 
	C784.666687,561.152588 784.393982,561.042480 783.095398,561.036194 
	C777.063721,561.079285 771.032104,561.122375 764.086121,561.036316 
	C761.264832,561.026062 758.409912,560.767578 755.641113,561.143372 
	C754.703918,561.270630 753.984558,563.002258 753.036987,564.914062 
	C753.075745,568.609375 753.114502,572.304688 753.030945,576.510742 
	C753.031799,576.685730 753.032654,576.860779 752.092346,577.007874 
	C741.832947,577.007874 731.573608,577.007874 720.898071,577.007874 
	C720.898071,582.638855 720.898071,587.573914 720.898071,593.097046 
	C715.429138,593.097046 710.371765,593.097046 704.907715,593.097046 
	C704.907715,598.629028 704.907715,603.563965 704.907715,609.087463 
	C699.438721,609.087463 694.380005,609.087463 688.917358,609.087463 
	C688.917358,614.619141 688.917358,619.553955 688.917358,625.078125 
	C683.448792,625.078125 678.388916,625.078125 673.429260,625.078125 
	C673.429260,636.067932 673.429260,646.442627 673.429260,656.662842 
	C678.788513,656.662842 683.712952,656.662842 689.237000,656.662842 
	C689.237000,651.279541 689.237000,646.218994 689.237000,640.767822 
	C694.775146,640.767822 699.705139,640.767822 705.227356,640.767822 
	C705.227356,635.289856 705.227356,630.230164 705.227356,624.777466 
	C710.765137,624.777466 715.695740,624.777466 721.217773,624.777466 
	C721.217773,619.300110 721.217773,614.241516 721.217773,608.786987 
	C726.755432,608.786987 731.686951,608.786987 737.208191,608.786987 
	C737.208191,603.310364 737.208191,598.253113 737.208191,592.796753 
	C742.745361,592.796753 747.677124,592.796753 752.965637,592.796753 
	C752.965637,587.237793 752.965637,582.104980 753.498230,576.897461 
	C753.698669,576.610962 753.899170,576.324524 754.832520,575.669250 
	C757.919006,575.482666 761.022461,574.997375 764.088562,575.170776 
	C770.744263,575.547180 777.381042,576.260010 784.504944,576.845581 
M928.092712,849.007751 
	C917.834778,849.007751 907.576904,849.007751 896.903564,849.007751 
	C896.903564,854.633179 896.903564,859.565063 896.903564,865.083679 
	C880.770935,865.083679 865.057190,865.083679 849.429565,865.083679 
	C849.429565,870.738953 849.429565,875.783630 849.429565,880.671997 
	C870.778503,880.671997 891.696472,880.671997 913.217773,880.671997 
	C913.217773,875.299744 913.217773,870.242004 913.217773,864.789307 
	C918.753357,864.789307 923.684448,864.789307 928.964844,864.789307 
	C928.964844,859.232178 928.964844,854.099121 929.906555,848.992493 
	C940.163025,848.992493 950.419556,848.992493 961.090576,848.992493 
	C961.090576,843.372986 961.090576,838.440369 961.090576,832.918457 
	C966.556030,832.918457 971.614197,832.918457 976.570435,832.918457 
	C976.570435,827.259521 976.570435,822.215576 976.570435,817.331543 
	C965.883423,817.331543 955.628418,817.331543 944.776245,817.331543 
	C944.776245,822.707031 944.776245,827.764587 944.776245,833.214600 
	C939.241943,833.214600 934.312012,833.214600 929.033936,833.214600 
	C929.033936,838.771118 929.033936,843.903137 928.092712,849.007751 
z"/>
<path fill="#FF7E00" opacity="1.000000" stroke="none" 
	d="
M1024.985352,816.990601 
	C1024.992676,812.302429 1024.999878,807.614258 1025.226929,802.354492 
	C1025.712891,801.588928 1025.895020,801.334717 1025.993164,801.020386 
	C1030.352417,801.016418 1034.711548,801.012451 1039.569824,801.299438 
	C1040.497925,801.888123 1040.926758,802.185913 1041.355713,802.483704 
	C1041.232300,801.986023 1041.108765,801.488281 1040.985352,800.990601 
	C1040.992432,785.637512 1040.999756,770.284363 1041.226807,754.357117 
	C1041.712891,753.588928 1041.895020,753.334717 1041.993164,753.020325 
	C1046.352417,753.016357 1050.711548,753.012390 1055.569824,753.299377 
	C1056.497925,753.888123 1056.926758,754.185913 1057.355713,754.483704 
	C1057.232178,753.986023 1057.108765,753.488281 1056.985352,752.990601 
	C1056.990234,717.601685 1056.925781,682.212524 1057.088379,646.824341 
	C1057.108398,642.444275 1056.219116,640.299255 1051.393066,640.933350 
	C1048.616943,641.298157 1045.752930,640.995117 1042.355835,640.772949 
	C1041.588989,640.287231 1041.334839,640.104980 1041.020508,640.006531 
	C1041.016357,630.315186 1041.012085,620.623840 1041.215820,610.378296 
	C1041.679932,609.664185 1041.866089,609.445068 1041.982300,609.166626 
	C1046.353882,609.119019 1050.725342,609.071411 1055.649902,609.270874 
	C1056.366089,609.736816 1056.576172,609.891846 1056.833496,609.983215 
	C1056.833496,614.886658 1056.833496,619.790039 1056.833496,625.023621 
	C1061.950195,625.023621 1066.522461,625.023621 1071.648926,625.270813 
	C1072.366089,625.736816 1072.576172,625.891846 1072.833496,625.983215 
	C1072.889038,652.241699 1072.964233,678.500122 1072.993774,704.758606 
	C1073.017090,725.535583 1072.984375,746.312500 1072.729248,767.646118 
	C1072.263306,768.365967 1072.108154,768.576172 1072.016846,768.833374 
	C1067.338623,768.893250 1062.660400,768.953125 1057.474365,768.760376 
	C1056.566772,768.184143 1056.166992,767.860535 1055.767334,767.536926 
	C1055.682373,767.799805 1055.477539,768.262146 1055.531128,768.294373 
	C1056.026489,768.592041 1056.566284,768.815308 1057.093262,769.060242 
	C1057.054321,784.403320 1057.015503,799.746399 1056.729248,815.646118 
	C1056.263306,816.365967 1056.108154,816.576172 1056.016846,816.833435 
	C1051.338623,816.893311 1046.660400,816.953186 1041.474365,816.760376 
	C1040.566772,816.184143 1040.166992,815.860535 1039.767334,815.536926 
	C1039.682373,815.799805 1039.477539,816.262146 1039.531128,816.294373 
	C1040.026489,816.592041 1040.566284,816.815308 1041.093262,817.060242 
	C1041.054321,821.738525 1041.015381,826.416809 1040.729248,831.648926 
	C1040.263306,832.365967 1040.108154,832.576172 1040.016846,832.833435 
	C1035.338623,832.893311 1030.660400,832.953186 1025.474365,832.760376 
	C1024.566772,832.184265 1024.167114,831.860840 1023.767334,831.537476 
	C1023.682434,831.800293 1023.477600,832.262573 1023.531250,832.294800 
	C1024.026367,832.592346 1024.566406,832.815430 1025.093262,833.060242 
	C1025.054321,837.738525 1025.015381,842.416809 1024.729248,847.648926 
	C1024.263306,848.365967 1024.108154,848.576172 1024.016846,848.833435 
	C1019.338623,848.893311 1014.660339,848.953186 1009.474426,848.760376 
	C1008.566956,848.184204 1008.167175,847.860657 1007.767456,847.537109 
	C1007.682434,847.799927 1007.477539,848.262451 1007.531128,848.294556 
	C1008.026367,848.592102 1008.566345,848.815308 1009.093262,849.060181 
	C1009.054260,853.738525 1009.015259,858.416870 1008.729126,863.649048 
	C1008.263062,864.365967 1008.108032,864.576172 1008.016907,864.833435 
	C1003.338623,864.893311 998.660400,864.953186 993.474426,864.760376 
	C992.567017,864.184204 992.167236,863.860657 991.767456,863.537109 
	C991.682373,863.799927 991.477478,864.262329 991.531128,864.294556 
	C992.026367,864.592163 992.566284,864.815369 993.093262,865.060181 
	C993.054321,869.738525 993.015320,874.416870 992.729126,879.649048 
	C992.263062,880.365967 992.108032,880.576172 992.016907,880.833435 
	C987.338623,880.893311 982.660400,880.953186 977.474426,880.760376 
	C976.566956,880.184204 976.167236,879.860657 975.767456,879.537109 
	C975.682434,879.799927 975.477600,880.262390 975.531067,880.294617 
	C976.026367,880.592102 976.566345,880.815308 977.093262,881.060181 
	C977.054260,885.738525 977.015320,890.416870 976.729126,895.649048 
	C976.263062,896.365967 976.108032,896.576172 976.016907,896.833435 
	C971.338623,896.893311 966.660400,896.953186 961.474426,896.760376 
	C960.566956,896.184204 960.167175,895.860657 959.767456,895.537109 
	C959.682495,895.799988 959.477661,896.262512 959.531067,896.294617 
	C960.026428,896.592041 960.566345,896.815308 961.093262,897.060181 
	C961.054260,901.738525 961.015259,906.416870 960.729126,911.649048 
	C960.263062,912.365967 960.108032,912.576172 960.016907,912.833435 
	C950.006897,912.893250 939.996948,912.953125 929.476807,912.760376 
	C928.566956,912.184204 928.167236,911.860657 927.767456,911.537109 
	C927.682373,911.799927 927.477478,912.262329 927.531128,912.294556 
	C928.026367,912.592163 928.566345,912.815308 929.093262,913.060181 
	C929.054321,917.738525 929.015320,922.416870 928.729126,927.649048 
	C928.263062,928.365967 928.108032,928.576172 928.016907,928.833435 
	C901.758423,928.888916 875.499939,928.964233 849.241455,928.993713 
	C828.464478,929.017090 807.687439,928.984314 786.353760,928.729248 
	C785.634033,928.263062 785.423828,928.108032 785.166626,928.016907 
	C785.106262,923.335449 785.045898,918.654053 784.939819,913.511658 
	C821.617371,913.036621 858.340698,913.022461 895.566650,913.299316 
	C896.498108,913.888123 896.926880,914.185913 897.355591,914.483704 
	C897.232239,913.986023 897.108948,913.488281 896.985657,912.990601 
	C896.992859,908.302429 897.000122,903.614258 897.227051,898.354614 
	C897.712891,897.588989 897.895142,897.334778 897.993469,897.020325 
	C913.016968,897.016357 928.040466,897.012329 943.566650,897.299316 
	C944.498169,897.888123 944.926880,898.185913 945.355591,898.483704 
	C945.232300,897.986023 945.108948,897.488281 944.985718,896.990601 
	C944.992920,892.302429 945.000122,887.614258 945.227051,882.354614 
	C945.712891,881.588989 945.895142,881.334778 945.993469,881.020325 
	C950.352905,881.016357 954.712402,881.012390 959.570618,881.299377 
	C960.498108,881.888123 960.926880,882.185913 961.355591,882.483704 
	C961.232239,881.986023 961.108948,881.488281 960.985657,880.990601 
	C960.992859,876.302429 961.000122,871.614258 961.227051,866.354614 
	C961.712891,865.588989 961.895142,865.334778 961.993469,865.020264 
	C966.352905,865.016296 970.712402,865.012329 975.570618,865.299316 
	C976.498108,865.888123 976.926880,866.185913 977.355591,866.483704 
	C977.232361,865.985962 977.109009,865.488281 976.985718,864.990601 
	C976.992859,860.302429 977.000122,855.614258 977.227051,850.354614 
	C977.712891,849.588989 977.895142,849.334778 977.993469,849.020325 
	C982.352905,849.016357 986.712402,849.012390 991.570618,849.299377 
	C992.498169,849.888123 992.926880,850.185913 993.355591,850.483704 
	C993.232239,849.986023 993.108948,849.488342 992.985596,848.990601 
	C992.992920,844.302429 993.000122,839.614258 993.227051,834.354614 
	C993.712891,833.588989 993.895142,833.334778 993.993469,833.020325 
	C998.352905,833.016357 1002.712402,833.012390 1007.570618,833.299377 
	C1008.498108,833.888123 1008.926880,834.185913 1009.355591,834.483704 
	C1009.232300,833.986023 1009.109009,833.488281 1008.985657,832.990601 
	C1008.992859,828.302429 1009.000061,823.614258 1009.226990,818.354614 
	C1009.712891,817.588989 1009.895142,817.334778 1009.993469,817.020264 
	C1014.352600,817.016296 1018.711731,817.012329 1023.569946,817.299316 
	C1024.497925,817.888123 1024.926758,818.185913 1025.355713,818.483704 
	C1025.232178,817.986023 1025.108765,817.488281 1024.985352,816.990601 
z"/>
<path fill="#FF7E00" opacity="1.000000" stroke="none" 
	d="
M753.994751,898.022583 
	C763.688782,897.684204 773.382812,897.345764 783.646851,897.227051 
	C784.411011,897.712891 784.665222,897.895142 784.979675,897.993469 
	C784.979980,902.714966 784.980347,907.436462 784.964966,912.631958 
	C774.936279,913.062744 764.923401,913.019592 754.353760,912.729248 
	C753.634033,912.263062 753.423828,912.108032 753.166626,912.016907 
	C753.119019,907.977417 753.071411,903.937988 753.281982,899.326050 
	C753.767212,898.556824 753.918701,898.313171 753.994751,898.022583 
z"/>
<path fill="#FF7E00" opacity="1.000000" stroke="none" 
	d="
M928.272461,928.863770 
	C928.108032,928.576172 928.263062,928.365967 928.657715,928.111206 
	C928.731628,928.311035 928.629761,928.602539 928.272461,928.863770 
z"/>
<path fill="#FF7E00" opacity="1.000000" stroke="none" 
	d="
M785.136230,928.272461 
	C785.423828,928.108032 785.634033,928.263062 785.888794,928.657715 
	C785.688965,928.731628 785.397461,928.629761 785.136230,928.272461 
z"/>
<path fill="#FF7E00" opacity="1.000000" stroke="none" 
	d="
M960.272400,912.863770 
	C960.108032,912.576172 960.263062,912.365967 960.657715,912.111206 
	C960.731628,912.311035 960.629761,912.602539 960.272400,912.863770 
z"/>
<path fill="#FF7E00" opacity="1.000000" stroke="none" 
	d="
M992.272400,880.863770 
	C992.108032,880.576172 992.263062,880.365967 992.657715,880.111206 
	C992.731567,880.311035 992.629761,880.602539 992.272400,880.863770 
z"/>
<path fill="#FF7E00" opacity="1.000000" stroke="none" 
	d="
M753.136230,912.272461 
	C753.423828,912.108032 753.634033,912.263062 753.888794,912.657715 
	C753.688965,912.731628 753.397461,912.629761 753.136230,912.272461 
z"/>
<path fill="#FF7E00" opacity="1.000000" stroke="none" 
	d="
M753.787720,898.015869 
	C753.918701,898.313171 753.767212,898.556824 753.353394,898.866089 
	C753.166565,898.978516 753.047363,898.493713 753.106812,898.251282 
	C753.166260,898.008850 753.580627,898.009094 753.787720,898.015869 
z"/>
<path fill="#FF7E00" opacity="1.000000" stroke="none" 
	d="
M976.272400,896.863770 
	C976.108032,896.576172 976.263062,896.365967 976.657715,896.111206 
	C976.731628,896.311035 976.629761,896.602539 976.272400,896.863770 
z"/>
<path fill="#FF7E00" opacity="1.000000" stroke="none" 
	d="
M1072.272217,768.863770 
	C1072.108154,768.576172 1072.263306,768.365967 1072.657715,768.111145 
	C1072.731567,768.310974 1072.629639,768.602478 1072.272217,768.863770 
z"/>
<path fill="#FF7E00" opacity="1.000000" stroke="none" 
	d="
M1041.752197,609.088379 
	C1041.866089,609.445068 1041.679932,609.664185 1041.223145,609.909302 
	C1041.023438,609.812561 1041.024658,609.630432 1041.036865,609.175537 
	C1041.047852,608.902710 1041.522095,609.010193 1041.752197,609.088379 
z"/>
<path fill="#FF7E00" opacity="1.000000" stroke="none" 
	d="
M1056.863770,609.727661 
	C1056.576172,609.891846 1056.366089,609.736816 1056.111328,609.342285 
	C1056.311035,609.268372 1056.602661,609.370239 1056.863770,609.727661 
z"/>
<path fill="#FF7E00" opacity="1.000000" stroke="none" 
	d="
M1072.863770,625.727661 
	C1072.576172,625.891846 1072.366089,625.736816 1072.111328,625.342285 
	C1072.311035,625.268433 1072.602661,625.370239 1072.863770,625.727661 
z"/>
<path fill="#FF7E00" opacity="1.000000" stroke="none" 
	d="
M1056.272339,816.863770 
	C1056.108154,816.576172 1056.263306,816.365967 1056.657715,816.111145 
	C1056.731567,816.310974 1056.629761,816.602539 1056.272339,816.863770 
z"/>
<path fill="#FF7E00" opacity="1.000000" stroke="none" 
	d="
M1040.272339,832.863770 
	C1040.108154,832.576172 1040.263306,832.365967 1040.657715,832.111145 
	C1040.731567,832.310974 1040.629761,832.602539 1040.272339,832.863770 
z"/>
<path fill="#FF7E00" opacity="1.000000" stroke="none" 
	d="
M1024.272339,848.863770 
	C1024.108154,848.576172 1024.263306,848.365967 1024.657715,848.111145 
	C1024.731567,848.310974 1024.629761,848.602539 1024.272339,848.863770 
z"/>
<path fill="#FF7E00" opacity="1.000000" stroke="none" 
	d="
M1008.272400,864.863770 
	C1008.108032,864.576172 1008.263062,864.365967 1008.657715,864.111206 
	C1008.731567,864.311035 1008.629761,864.602539 1008.272400,864.863770 
z"/>
<path fill="#FCF9AE" opacity="1.000000" stroke="none" 
	d="
M752.965637,576.972107 
	C752.965637,582.104980 752.965637,587.237793 752.965637,592.796753 
	C747.677124,592.796753 742.745361,592.796753 737.208191,592.796753 
	C737.208191,598.253113 737.208191,603.310364 737.208191,608.786987 
	C731.686951,608.786987 726.755432,608.786987 721.217773,608.786987 
	C721.217773,614.241516 721.217773,619.300110 721.217773,624.777466 
	C715.695740,624.777466 710.765137,624.777466 705.227356,624.777466 
	C705.227356,630.230164 705.227356,635.289856 705.227356,640.767822 
	C699.705139,640.767822 694.775146,640.767822 689.237000,640.767822 
	C689.237000,646.218994 689.237000,651.279541 689.237000,656.662842 
	C683.712952,656.662842 678.788513,656.662842 673.429260,656.662842 
	C673.429260,646.442627 673.429260,636.067932 673.429260,625.078125 
	C678.388916,625.078125 683.448792,625.078125 688.917358,625.078125 
	C688.917358,619.553955 688.917358,614.619141 688.917358,609.087463 
	C694.380005,609.087463 699.438721,609.087463 704.907715,609.087463 
	C704.907715,603.563965 704.907715,598.629028 704.907715,593.097046 
	C710.371765,593.097046 715.429138,593.097046 720.898071,593.097046 
	C720.898071,587.573914 720.898071,582.638855 720.898071,577.007874 
	C731.573608,577.007874 741.832947,577.007874 752.546692,577.005005 
	C753.001038,577.002075 752.965637,576.972107 752.965637,576.972107 
z"/>
<path fill="#FCF9AE" opacity="1.000000" stroke="none" 
	d="
M928.964844,848.966064 
	C928.964844,854.099121 928.964844,859.232178 928.964844,864.789307 
	C923.684448,864.789307 918.753357,864.789307 913.217773,864.789307 
	C913.217773,870.242004 913.217773,875.299744 913.217773,880.671997 
	C891.696472,880.671997 870.778503,880.671997 849.429565,880.671997 
	C849.429565,875.783630 849.429565,870.738953 849.429565,865.083679 
	C865.057190,865.083679 880.770935,865.083679 896.903564,865.083679 
	C896.903564,859.565063 896.903564,854.633179 896.903564,849.007751 
	C907.576904,849.007751 917.834778,849.007751 928.546387,849.003906 
	C929.000000,849.000000 928.964844,848.966064 928.964844,848.966064 
z"/>
<path fill="#FCF9AE" opacity="1.000000" stroke="none" 
	d="
M929.016968,849.017578 
	C929.033936,843.903137 929.033936,838.771118 929.033936,833.214600 
	C934.312012,833.214600 939.241943,833.214600 944.776245,833.214600 
	C944.776245,827.764587 944.776245,822.707031 944.776245,817.331543 
	C955.628418,817.331543 965.883423,817.331543 976.570435,817.331543 
	C976.570435,822.215576 976.570435,827.259521 976.570435,832.918457 
	C971.614197,832.918457 966.556030,832.918457 961.090576,832.918457 
	C961.090576,838.440369 961.090576,843.372986 961.090576,848.992493 
	C950.419556,848.992493 940.163025,848.992493 929.435669,848.979248 
	C928.964844,848.966064 929.000000,849.000000 929.016968,849.017578 
z"/>
<path fill="#FCF9AE" opacity="1.000000" stroke="none" 
	d="
M765.000427,561.165527 
	C771.032104,561.122375 777.063721,561.079285 783.652588,561.274536 
	C784.371582,561.729919 784.580078,561.883789 784.835205,561.974487 
	C784.877930,566.350342 784.920654,570.726196 784.725220,575.655884 
	C784.270081,576.371582 784.116211,576.580078 784.025513,576.835205 
	C777.381042,576.260010 770.744263,575.547180 764.088562,575.170776 
	C761.022461,574.997375 757.919006,575.482666 754.229248,575.839355 
	C753.626038,576.009399 753.153198,576.000000 753.153198,576.000000 
	C753.114502,572.304688 753.075745,568.609375 753.549438,564.457031 
	C756.707214,563.998840 759.396179,564.275024 761.977478,563.867920 
	C763.099304,563.690979 763.999573,562.109253 765.000427,561.165527 
z"/>
<path fill="#FCF9AE" opacity="1.000000" stroke="none" 
	d="
M764.543274,561.100952 
	C763.999573,562.109253 763.099304,563.690979 761.977478,563.867920 
	C759.396179,564.275024 756.707214,563.998840 753.613770,564.000305 
	C753.984558,563.002258 754.703918,561.270630 755.641113,561.143372 
	C758.409912,560.767578 761.264832,561.026062 764.543274,561.100952 
z"/>
<path fill="#FF7E00" opacity="1.000000" stroke="none" 
	d="
M992.739502,848.997192 
	C993.108948,849.488342 993.232239,849.986023 993.355591,850.483704 
	C992.926880,850.185913 992.498169,849.888123 992.035400,849.306763 
	C992.001343,849.023254 992.493408,849.003845 992.739502,848.997192 
z"/>
<path fill="#FF7E00" opacity="1.000000" stroke="none" 
	d="
M1008.739563,832.997192 
	C1009.109009,833.488281 1009.232300,833.986023 1009.355591,834.483704 
	C1008.926880,834.185913 1008.498108,833.888123 1008.035400,833.306763 
	C1008.001343,833.023254 1008.493408,833.003845 1008.739563,832.997192 
z"/>
<path fill="#FF7E00" opacity="1.000000" stroke="none" 
	d="
M960.739502,880.997192 
	C961.108948,881.488281 961.232239,881.986023 961.355591,882.483704 
	C960.926880,882.185913 960.498108,881.888123 960.035400,881.306763 
	C960.001343,881.023254 960.493408,881.003845 960.739502,880.997192 
z"/>
<path fill="#FF7E00" opacity="1.000000" stroke="none" 
	d="
M1024.739014,816.997192 
	C1025.108765,817.488281 1025.232178,817.986023 1025.355713,818.483704 
	C1024.926758,818.185913 1024.497925,817.888123 1024.034668,817.306763 
	C1024.000244,817.023254 1024.492676,817.003845 1024.739014,816.997192 
z"/>
<path fill="#FF7E00" opacity="1.000000" stroke="none" 
	d="
M976.739563,864.997192 
	C977.109009,865.488281 977.232361,865.985962 977.355591,866.483704 
	C976.926880,866.185913 976.498108,865.888123 976.035400,865.306763 
	C976.001343,865.023254 976.493408,865.003845 976.739563,864.997192 
z"/>
<path fill="#FF7E00" opacity="1.000000" stroke="none" 
	d="
M1040.739014,800.997192 
	C1041.108765,801.488281 1041.232300,801.986023 1041.355713,802.483704 
	C1040.926758,802.185913 1040.497925,801.888123 1040.034668,801.306763 
	C1040.000244,801.023254 1040.492676,801.003845 1040.739014,800.997192 
z"/>
<path fill="#FF7E00" opacity="1.000000" stroke="none" 
	d="
M896.739502,912.997192 
	C897.108948,913.488281 897.232239,913.986023 897.355591,914.483704 
	C896.926880,914.185913 896.498108,913.888123 896.035400,913.306763 
	C896.001343,913.023254 896.493408,913.003845 896.739502,912.997192 
z"/>
<path fill="#FF7E00" opacity="1.000000" stroke="none" 
	d="
M1056.739014,752.997192 
	C1057.108765,753.488281 1057.232178,753.986023 1057.355713,754.483704 
	C1056.926758,754.185913 1056.497925,753.888123 1056.034668,753.306763 
	C1056.000244,753.023254 1056.492676,753.003845 1056.739014,752.997192 
z"/>
<path fill="#FF7E00" opacity="1.000000" stroke="none" 
	d="
M944.739502,896.997192 
	C945.108948,897.488281 945.232300,897.986023 945.355591,898.483704 
	C944.926880,898.185913 944.498169,897.888123 944.035400,897.306763 
	C944.001343,897.023254 944.493408,897.003845 944.739502,896.997192 
z"/>
<path fill="#FF7E00" opacity="1.000000" stroke="none" 
	d="
M945.774658,881.118530 
	C945.895142,881.334778 945.712891,881.588989 945.233521,881.888184 
	C945.103882,881.668884 945.282349,881.410034 945.774658,881.118530 
z"/>
<path fill="#FF7E00" opacity="1.000000" stroke="none" 
	d="
M897.774658,897.118530 
	C897.895142,897.334778 897.712891,897.588989 897.233521,897.888184 
	C897.103882,897.668884 897.282349,897.410034 897.774658,897.118530 
z"/>
<path fill="#FF7E00" opacity="1.000000" stroke="none" 
	d="
M784.881470,897.774658 
	C784.665222,897.895142 784.411011,897.712891 784.111816,897.233521 
	C784.331116,897.103882 784.589966,897.282349 784.881470,897.774658 
z"/>
<path fill="#FCF9AE" opacity="1.000000" stroke="none" 
	d="
M784.840393,561.734741 
	C784.580078,561.883789 784.371582,561.729919 784.118591,561.338867 
	C784.393982,561.042480 784.666687,561.152588 784.840393,561.734741 
z"/>
<path fill="#FCF9AE" opacity="1.000000" stroke="none" 
	d="
M753.092041,576.255371 
	C753.153198,576.000000 753.626038,576.009399 753.862854,576.023743 
	C753.899170,576.324524 753.698669,576.610962 753.231934,576.934814 
	C752.965637,576.972107 753.001038,577.002075 753.017273,577.018921 
	C753.032654,576.860779 753.031799,576.685730 753.092041,576.255371 
z"/>
<path fill="#FCF9AE" opacity="1.000000" stroke="none" 
	d="
M784.265259,576.840393 
	C784.116211,576.580078 784.270081,576.371582 784.661133,576.118591 
	C784.957520,576.393982 784.847412,576.666687 784.265259,576.840393 
z"/>
<path fill="#FF7E00" opacity="1.000000" stroke="none" 
	d="
M1041.118774,640.225342 
	C1041.334839,640.104980 1041.588989,640.287231 1041.888184,640.766479 
	C1041.668701,640.896240 1041.410034,640.717712 1041.118774,640.225342 
z"/>
<path fill="#FF7E00" opacity="1.000000" stroke="none" 
	d="
M1041.774414,753.118652 
	C1041.895020,753.334717 1041.712891,753.588928 1041.233643,753.888062 
	C1041.103760,753.668884 1041.282227,753.410156 1041.774414,753.118652 
z"/>
<path fill="#FF7E00" opacity="1.000000" stroke="none" 
	d="
M961.774658,865.118530 
	C961.895142,865.334778 961.712891,865.588989 961.233521,865.888184 
	C961.103882,865.668884 961.282349,865.410034 961.774658,865.118530 
z"/>
<path fill="#FF7E00" opacity="1.000000" stroke="none" 
	d="
M1025.774414,801.118652 
	C1025.895020,801.334717 1025.712891,801.588928 1025.233643,801.888062 
	C1025.103760,801.668884 1025.282227,801.410156 1025.774414,801.118652 
z"/>
<path fill="#FF7E00" opacity="1.000000" stroke="none" 
	d="
M1009.774658,817.118530 
	C1009.895142,817.334778 1009.712891,817.588989 1009.233521,817.888184 
	C1009.103882,817.668884 1009.282349,817.410034 1009.774658,817.118530 
z"/>
<path fill="#FF7E00" opacity="1.000000" stroke="none" 
	d="
M993.774658,833.118530 
	C993.895142,833.334778 993.712891,833.588989 993.233521,833.888184 
	C993.103882,833.668884 993.282349,833.410034 993.774658,833.118530 
z"/>
<path fill="#FF7E00" opacity="1.000000" stroke="none" 
	d="
M977.774658,849.118530 
	C977.895142,849.334778 977.712891,849.588989 977.233521,849.888184 
	C977.103882,849.668884 977.282349,849.410034 977.774658,849.118530 
z"/>
<path fill="#FF7E00" opacity="1.000000" stroke="none" 
	d="
M993.050964,865.034424 
	C992.566284,864.815369 992.026367,864.592163 991.531128,864.294556 
	C991.477478,864.262329 991.682373,863.799927 991.767456,863.537109 
	C992.167236,863.860657 992.567017,864.184204 993.013489,864.800476 
	C993.060242,865.093201 993.008667,865.008728 993.050964,865.034424 
z"/>
<path fill="#FF7E00" opacity="1.000000" stroke="none" 
	d="
M977.050964,881.034424 
	C976.566345,880.815308 976.026367,880.592102 975.531067,880.294617 
	C975.477600,880.262390 975.682434,879.799927 975.767456,879.537109 
	C976.167236,879.860657 976.566956,880.184204 977.013489,880.800476 
	C977.060242,881.093201 977.008667,881.008728 977.050964,881.034424 
z"/>
<path fill="#FF7E00" opacity="1.000000" stroke="none" 
	d="
M1009.050964,849.034424 
	C1008.566345,848.815308 1008.026367,848.592102 1007.531128,848.294556 
	C1007.477539,848.262451 1007.682434,847.799927 1007.767456,847.537109 
	C1008.167175,847.860657 1008.566956,848.184204 1009.013489,848.800476 
	C1009.060242,849.093201 1009.008667,849.008728 1009.050964,849.034424 
z"/>
<path fill="#FF7E00" opacity="1.000000" stroke="none" 
	d="
M961.050964,897.034424 
	C960.566345,896.815308 960.026428,896.592041 959.531067,896.294617 
	C959.477661,896.262512 959.682495,895.799988 959.767456,895.537109 
	C960.167175,895.860657 960.566956,896.184204 961.013489,896.800476 
	C961.060242,897.093201 961.008667,897.008728 961.050964,897.034424 
z"/>
<path fill="#FF7E00" opacity="1.000000" stroke="none" 
	d="
M1025.050903,833.034424 
	C1024.566406,832.815430 1024.026367,832.592346 1023.531250,832.294800 
	C1023.477600,832.262573 1023.682434,831.800293 1023.767334,831.537476 
	C1024.167114,831.860840 1024.566772,832.184265 1025.013428,832.800476 
	C1025.060303,833.093262 1025.008545,833.008667 1025.050903,833.034424 
z"/>
<path fill="#FF7E00" opacity="1.000000" stroke="none" 
	d="
M1041.050903,817.034424 
	C1040.566284,816.815308 1040.026489,816.592041 1039.531128,816.294373 
	C1039.477539,816.262146 1039.682373,815.799805 1039.767334,815.536926 
	C1040.166992,815.860535 1040.566772,816.184143 1041.013428,816.800537 
	C1041.060303,817.093262 1041.008545,817.008667 1041.050903,817.034424 
z"/>
<path fill="#FF7E00" opacity="1.000000" stroke="none" 
	d="
M1057.050903,769.034424 
	C1056.566284,768.815308 1056.026489,768.592041 1055.531128,768.294373 
	C1055.477539,768.262146 1055.682373,767.799805 1055.767334,767.536926 
	C1056.166992,767.860535 1056.566772,768.184143 1057.013428,768.800537 
	C1057.060303,769.093262 1057.008545,769.008667 1057.050903,769.034424 
z"/>
<path fill="#FF7E00" opacity="1.000000" stroke="none" 
	d="
M929.050964,913.034424 
	C928.566345,912.815308 928.026367,912.592163 927.531128,912.294556 
	C927.477478,912.262329 927.682373,911.799927 927.767456,911.537109 
	C928.167236,911.860657 928.566956,912.184204 929.013489,912.800476 
	C929.060242,913.093201 929.008667,913.008728 929.050964,913.034424 
z"/>
</svg>